<svg width="24" height="24" viewBox="0 0 32 32" version="1.1" xmlns="http://www.w3.org/2000/svg" xmlns:xlink="http://www.w3.org/1999/xlink">
    <title>setting</title>
    <g id="setting" stroke="none" stroke-width="1" fill="none" fill-rule="evenodd">
        <g id="Group-2" transform="translate(6.25, 6.25)">
        <path d="M13.75,4.75 C14.8545695,4.75 15.75,3.8545695 15.75,2.75 C15.75,1.6454305 14.8545695,0.75 13.75,0.75 C12.6454305,0.75 11.75,1.6454305 11.75,2.75 C11.75,3.8545695 12.6454305,4.75 13.75,4.75 Z M5.75,11.25 C6.8545695,11.25 7.75,10.3545695 7.75,9.25 C7.75,8.1454305 6.8545695,7.25 5.75,7.25 C4.6454305,7.25 3.75,8.1454305 3.75,9.25 C3.75,10.3545695 4.6454305,11.25 5.75,11.25 Z M12.25,17.75 C13.3545695,17.75 14.25,16.8545695 14.25,15.75 C14.25,14.6454305 13.3545695,13.75 12.25,13.75 C11.1454305,13.75 10.25,14.6454305 10.25,15.75 C10.25,16.8545695 11.1454305,17.75 12.25,17.75 Z" id="Combined-Shape" fill="#2ECC87"></path>
        <path d="M12.25,13 C13.5085758,13 14.5696798,13.8454771 14.896327,14.9994462 L18.75,15 C19.1642136,15 19.5,15.3357864 19.5,15.75 C19.5,16.1642136 19.1642136,16.5 18.75,16.5 L14.896327,16.5005538 C14.5696798,17.6545229 13.5085758,18.5 12.25,18.5 C10.9914242,18.5 9.93032018,17.6545229 9.60367295,16.5005538 L0.75,16.5 C0.335786438,16.5 0,16.1642136 0,15.75 C0,15.3357864 0.335786438,15 0.75,15 L9.60367295,14.9994462 C9.93032018,13.8454771 10.9914242,13 12.25,13 Z M12.25,14.5 C11.5596441,14.5 11,15.0596441 11,15.75 C11,16.4403559 11.5596441,17 12.25,17 C12.9403559,17 13.5,16.4403559 13.5,15.75 C13.5,15.0596441 12.9403559,14.5 12.25,14.5 Z M5.75,6.5 C7.00857578,6.5 8.06967982,7.34547707 8.39632705,8.49944616 L18.75,8.5 C19.1642136,8.5 19.5,8.83578644 19.5,9.25 C19.5,9.66421356 19.1642136,10 18.75,10 L8.39632705,10.0005538 C8.06967982,11.1545229 7.00857578,12 5.75,12 C4.49142422,12 3.43032018,11.1545229 3.10367295,10.0005538 L0.75,10 C0.335786438,10 0,9.66421356 0,9.25 C0,8.83578644 0.335786438,8.5 0.75,8.5 L3.10367295,8.49944616 C3.43032018,7.34547707 4.49142422,6.5 5.75,6.5 Z M5.75,8 C5.05964406,8 4.5,8.55964406 4.5,9.25 C4.5,9.94035594 5.05964406,10.5 5.75,10.5 C6.44035594,10.5 7,9.94035594 7,9.25 C7,8.55964406 6.44035594,8 5.75,8 Z M13.75,0 C15.0085758,0 16.0696798,0.845477072 16.396327,1.99944616 L18.75,2 C19.1642136,2 19.5,2.33578644 19.5,2.75 C19.5,3.16421356 19.1642136,3.5 18.75,3.5 L16.396327,3.50055384 C16.0696798,4.65452293 15.0085758,5.5 13.75,5.5 C12.4914242,5.5 11.4303202,4.65452293 11.103673,3.50055384 L0.75,3.5 C0.335786438,3.5 0,3.16421356 0,2.75 C0,2.33578644 0.335786438,2 0.75,2 L11.103673,1.99944616 C11.4303202,0.845477072 12.4914242,0 13.75,0 Z M13.75,1.5 C13.0596441,1.5 12.5,2.05964406 12.5,2.75 C12.5,3.44035594 13.0596441,4 13.75,4 C14.4403559,4 15,3.44035594 15,2.75 C15,2.05964406 14.4403559,1.5 13.75,1.5 Z" id="Combined-Shape" fill="#212121"></path>
        </g>
    </g>
</svg>