<svg width="24" height="24" viewBox="0 0 32 32" version="1.1" xmlns="http://www.w3.org/2000/svg" xmlns:xlink="http://www.w3.org/1999/xlink">
    <title>memo</title>
    <g id="memo" stroke="none" stroke-width="1" fill="none" fill-rule="evenodd">
        <path d="M8,5 L24,5 C25.6568542,5 27,6.34314575 27,8 L27,18.0157846 L27,18.0157846 L19.956888,18.0157846 C18.8523185,18.0157846 17.956888,18.9112151 17.956888,20.0157846 L17.956888,27 L17.956888,27 L8,27 C6.34314575,27 5,25.6568542 5,24 L5,8 C5,6.34314575 6.34314575,5 8,5 Z" id="Rectangle" fill="#FFFFFF"></path>
        <path d="M17.956888,27 L17.956888,20.0157846 C17.956888,18.9112151 18.8523185,18.0157846 19.956888,18.0157846 L27,18.0157846 L17.956888,27 Z" id="Path" fill="#2ECC87"></path>
        <path d="M24,4.25 C26.0710678,4.25 27.75,5.92893219 27.75,8 L27.75,18.0157846 C27.75,18.1336212 27.7228247,18.2451106 27.6743992,18.3443277 C27.6702333,18.3525088 27.6658029,18.361187 27.6612031,18.3697794 C27.6491804,18.3924759 27.6360611,18.4141729 27.6219118,18.4351167 C27.6146324,18.4457724 27.6073386,18.4560155 27.5997795,18.4660837 C27.5767434,18.4968523 27.5508044,18.5263159 27.5227368,18.5536014 L18.4872181,27.5303301 C18.4614872,27.556061 18.4338954,27.5799309 18.4046618,27.6017207 L18.4854827,27.5320599 C18.4509175,27.5663999 18.413356,27.5970335 18.3734155,27.6237061 C18.3538216,27.6368981 18.3337819,27.6489888 18.3131604,27.6601415 C18.3014388,27.6663101 18.2893722,27.6724118 18.2771537,27.6781817 C18.2546153,27.6890453 18.2312139,27.6987115 18.207253,27.7071945 C18.197255,27.7105094 18.1878043,27.7136371 18.1782911,27.7165767 C18.1477423,27.7262384 18.1157229,27.733903 18.0829819,27.7394458 C18.0791957,27.739971 18.0758324,27.7405191 18.0724642,27.7410444 C18.0350745,27.7469543 17.9963369,27.75 17.956888,27.75 L8,27.75 C5.92893219,27.75 4.25,26.0710678 4.25,24 L4.25,8 C4.25,5.92893219 5.92893219,4.25 8,4.25 L24,4.25 Z M24,5.75 L8,5.75 C6.75735931,5.75 5.75,6.75735931 5.75,8 L5.75,24 C5.75,25.2426407 6.75735931,26.25 8,26.25 L17.206,26.25 L17.206888,20.0157846 C17.206888,18.5532527 18.3485926,17.3573803 19.7893657,17.2708034 L19.956888,17.2657846 L26.25,17.265 L26.25,8 C26.25,6.80913601 25.3248384,5.83435508 24.1540488,5.75519081 L24,5.75 Z M25.181,18.765 L19.956888,18.7657846 C19.2665321,18.7657846 18.706888,19.3254286 18.706888,20.0157846 L18.706,25.197 L25.181,18.765 Z M14.75,17 L14.75,18.5 L8.75,18.5 L8.75,17 L14.75,17 Z M23.25,13.5 L23.25,15 L8.75,15 L8.75,13.5 L23.25,13.5 Z M23.25,10 L23.25,11.5 L8.75,11.5 L8.75,10 L23.25,10 Z" id="Combined-Shape" fill="#212121"></path>
    </g>
</svg>