<svg width="24" height="24" viewBox="0 0 32 32" version="1.1" xmlns="http://www.w3.org/2000/svg" xmlns:xlink="http://www.w3.org/1999/xlink">
    <title>activity</title>
    <g id="activity" stroke="none" stroke-width="1" fill="none" fill-rule="evenodd">
        <path d="M16,7 C20.9705627,7 25,11.0294373 25,16 L25,21 L25,21 L7,21 L7,16 C7,11.0294373 11.0294373,7 16,7 Z" id="Rectangle" fill="#FFFFFF"></path>
        <path d="M17.6573435,8.11982772 C17.8736565,7.8003102 18,7.41490965 18,7 C18,5.8954305 17.1045695,5 16,5 C14.8954305,5 14,5.8954305 14,7 C14,7.37283181 14.1020168,7.72183633 14.2796587,8.02062178 M7,19 L25,19 C26.6568542,19 28,20.3431458 28,22 C28,23.6568542 26.6568542,25 25,25 L7,25 C5.34314575,25 4,23.6568542 4,22 C4,20.3431458 5.34314575,19 7,19 Z" id="Combined-Shape" fill="#2ECC87"></path>
        <path d="M16,4 C17.6568542,4 19,5.34314575 19,7 C19,7.16992223 18.9858728,7.33654489 18.958729,7.49875752 C22.4758772,8.72146349 25,12.0659615 25,16 L25,19 C26.6568542,19 28,20.3431458 28,22 C28,23.6568542 26.6568542,25 25,25 L7,25 C5.34314575,25 4,23.6568542 4,22 C4,20.3431458 5.34314575,19 7,19 L7,16 C7,12.0655901 9.52459942,8.72083204 13.0422057,7.49731833 C13.0141084,7.33632343 13,7.16980931 13,7 C13,5.34314575 14.3431458,4 16,4 Z M25,20.5 L7,20.5 C6.17157288,20.5 5.5,21.1715729 5.5,22 C5.5,22.8284271 6.17157288,23.5 7,23.5 L25,23.5 C25.8284271,23.5 26.5,22.8284271 26.5,22 C26.5,21.1715729 25.8284271,20.5 25,20.5 Z M16,8.5 C11.8578644,8.5 8.5,11.8578644 8.5,16 L8.5,19 L23.5,19 L23.5,16 C23.5,11.9390827 20.2725256,8.63198248 16.2427311,8.50385357 L16,8.5 Z M16,5.5 C15.1715729,5.5 14.5,6.17157288 14.5,7 L14.5072326,7.12322731 C14.9927655,7.04217824 15.4914571,7 16,7 C16.509239,7 17.0085998,7.04229379 17.4947613,7.12356037 L17.5,7 C17.5,6.17157288 16.8284271,5.5 16,5.5 Z M20,26.75 C20.4142136,26.75 20.75,27.0857864 20.75,27.5 C20.75,27.9142136 20.4142136,28.25 20,28.25 L12,28.25 C11.5857864,28.25 11.25,27.9142136 11.25,27.5 C11.25,27.0857864 11.5857864,26.75 12,26.75 L20,26.75 Z" id="Shape" fill="#212121"></path>
    </g>
</svg>