<svg width="11" height="11" viewBox="0 0 11 11" fill="none" xmlns="http://www.w3.org/2000/svg">
    <path d="M7.86164 6.91824H7.36478L7.18868 6.74843C7.82638 6.00885 8.17685 5.0646 8.1761 4.08805C8.1761 3.27951 7.93634 2.48913 7.48714 1.81685C7.03794 1.14458 6.39947 0.620601 5.65248 0.311186C4.90549 0.00177129 4.08352 -0.0791857 3.29051 0.0785526C2.49751 0.236291 1.76909 0.62564 1.19736 1.19736C0.62564 1.76909 0.236291 2.49751 0.0785526 3.29051C-0.0791857 4.08352 0.00177129 4.90549 0.311186 5.65248C0.620601 6.39947 1.14458 7.03794 1.81685 7.48714C2.48913 7.93634 3.27951 8.1761 4.08805 8.1761C5.10063 8.1761 6.03145 7.80503 6.74843 7.18868L6.91824 7.36478V7.86164L10.0629 11L11 10.0629L7.86164 6.91824ZM4.08805 6.91824C2.52201 6.91824 1.25786 5.65409 1.25786 4.08805C1.25786 2.52201 2.52201 1.25786 4.08805 1.25786C5.65409 1.25786 6.91824 2.52201 6.91824 4.08805C6.91824 5.65409 5.65409 6.91824 4.08805 6.91824Z" fill="#8F8F8F"/>
</svg>
